# Wavefront OBJ exported by MilkShape 3D

v -7.185226 3.597416 -34.290409
v -0.108090 6.004068 -35.989719
v -1.477858 13.779404 -31.104202
v -9.354026 13.779404 -27.068338
v -12.436005 3.597416 -29.617304
v -14.262362 3.597416 -23.032475
v 7.197341 7.855339 -34.290409
v 3.088036 13.779404 -30.042133
v -7.527668 -5.844063 -34.821445
v -0.108090 -5.844063 -36.626961
v -12.892594 -5.844063 -29.829718
v -14.947247 -5.844063 -23.032475
v -6.500342 -9.546604 -33.228340
v -0.108090 -9.546604 -34.821445
v -11.294531 -9.546604 -28.980062
v -13.006742 -9.546604 -23.032475
v 7.425635 -5.844063 -34.821445
v 6.170014 -13.434272 -30.573168
v -6.500342 -13.064018 -26.537304
v 6.969046 7.855339 -32.060062
v 6.055867 12.668642 -27.386959
v 7.425635 1.561019 -34.927650
v 9.023699 -13.804526 -18.996611
v 9.023699 -13.804526 -27.174545
v 11.763235 -11.768128 -26.962132
v 10.165173 -10.842493 -27.386959
v 10.165173 -9.546604 -31.210409
v 7.996372 -5.658936 -32.484894
v -1.477858 13.779404 -14.854540
v -0.108090 6.004068 -10.181435
v -7.185226 3.597416 -11.880746
v -9.354026 13.779404 -18.890404
v -12.436005 3.597416 -16.553852
v 3.088036 13.779404 -15.916610
v 7.197341 7.855339 -11.880746
v -0.108090 -5.844063 -9.544193
v -7.527668 -5.844063 -11.349711
v -13.006742 -5.844063 -16.341438
v -0.108090 -9.546604 -11.349711
v -6.500342 -9.546604 -12.942816
v -11.294531 -9.546604 -17.191093
v 7.425635 -5.844063 -11.349711
v 6.170014 -13.434272 -15.597989
v -6.500342 -13.064018 -19.633852
v 6.055867 12.668642 -18.571783
v 6.969046 7.855339 -14.111092
v 7.425635 1.561019 -11.243505
v 11.763235 -11.768128 -19.209024
v 10.165173 -10.842493 -19.209024
v 10.165173 -9.546604 -14.960747
v 7.996372 -5.658936 -13.686264
v -7.185226 30.070585 -25.900063
v -1.477858 30.070585 -28.873856
v -1.477858 33.402870 -22.926268
v -7.185226 30.070585 -19.952473
v -1.477858 30.070585 -16.978680
v 4.343657 30.070585 -19.952473
v 4.343657 30.070585 -25.900063
v -6.956932 23.776264 -31.529030
v -1.477858 23.776264 -32.803513
v -10.952089 23.776264 -27.917994
v -12.436005 23.776264 -22.926268
v -10.952089 23.776264 -17.934542
v -6.956932 23.776264 -14.323505
v -1.477858 23.776264 -13.049023
v 4.115362 24.516773 -14.323505
v 9.023699 25.257280 -22.926268
v 4.115362 24.516773 -31.529030
v -7.299374 18.407579 -31.953857
v -1.477858 18.407579 -33.334549
v -11.408678 18.407579 -28.130407
v -13.006742 18.407579 -22.926268
v -7.299374 18.407579 -14.004885
v -11.408678 18.407579 -17.722128
v -1.477858 18.407579 -12.624194
v 4.229509 18.407579 -13.686264
v 4.229509 18.407579 -32.272480
v 8.795403 20.258850 -27.705580
v 9.822730 20.443977 -23.032475
v 8.795403 20.258850 -18.465576
v 7.882225 26.368044 -22.182819
v 6.626604 17.667072 -20.908337
v 9.366140 20.443977 -21.120750
v 4.001215 27.478806 -22.820061
v 6.512457 28.589567 -21.545578
v 2.174857 27.849060 -20.695921
v 4.001215 28.404442 -18.677990
v 3.658773 26.182917 -17.191093
v 5.142688 20.443977 -16.022816
v 4.914394 17.667072 -18.784197
v 5.599278 28.774694 -18.571783
v 6.398309 26.923424 -16.978680
v 7.882225 21.184486 -15.916610
v 6.854899 28.959822 -19.952473
v 8.567109 27.108551 -19.527645
v 10.051024 21.184486 -18.465576
v 8.110519 18.592707 -16.660059
v 9.366140 18.777834 -18.146955
v 9.023699 18.407579 -19.633852
v 6.512457 18.222454 -16.766266
v 10.850057 24.331646 -20.695921
v 8.567109 24.331646 -23.032475
v 10.850057 25.257280 -23.032475
v 7.539783 21.924994 -23.032475
v 10.850057 21.924994 -19.740059
v 10.850057 21.924994 -26.324890
v 10.850057 24.331646 -25.369026
v 14.160330 21.924994 -23.032475
v 13.247150 24.331646 -23.032475
v 10.850057 18.592707 -23.032475
v 10.850057 19.518343 -20.695921
v 13.247150 19.518343 -23.032475
v 10.850057 19.518343 -25.369026
v 8.567109 19.518343 -23.032475
v 7.996372 1.005638 -32.166271
v 7.996372 1.005638 -14.004885
v 5.599278 14.890166 -30.679375
v 5.599278 14.890166 -15.279368
v 9.366140 20.258850 -24.837992
v 6.626604 17.481945 -25.156612
v 7.882225 26.182917 -23.775923
v 4.001215 27.293678 -23.138681
v 6.512457 28.219315 -24.413164
v 2.174857 27.478806 -25.369026
v 4.001215 28.219315 -27.386959
v 3.658773 25.997789 -28.873856
v 5.142688 20.073723 -29.935925
v 4.914394 17.481945 -27.280752
v 5.599278 28.589567 -27.493166
v 6.398309 26.738298 -28.980062
v 7.882225 20.814232 -30.148340
v 6.854899 28.589567 -26.006269
v 8.567109 26.738298 -26.431097
v 10.051024 20.999359 -27.493166
v 8.110519 18.407579 -29.298683
v 9.366140 18.407579 -27.917994
v 9.023699 18.037327 -26.324890
v 6.512457 18.037327 -29.192476
v 7.768078 12.668642 -27.705580
v 7.311488 18.222454 -31.847651
v 10.621761 18.222454 -27.705580
v 11.306645 18.222454 -23.032475
v 7.768078 12.668642 -18.465576
v 8.681256 12.113260 -23.032475
v 10.621761 18.222454 -18.465576
v 7.311488 18.222454 -14.217299
v 10.393467 6.744576 -28.342821
v 10.393467 6.744576 -17.828335
v 6.854899 11.928134 -23.032475
v 10.279320 19.703470 -18.359369
v 10.964204 19.888597 -23.032475
v 10.279320 19.703470 -27.811787
v 6.284162 19.703470 -31.104202
v 6.284162 19.703470 -14.429712
v 11.534941 0.450256 -17.615921
v 11.534941 0.450256 -28.555235
v 11.649088 -4.548174 -26.643511
v 11.649088 -4.548174 -19.633852
v 9.023699 6.929703 -32.591099
v 9.251993 1.375892 -33.334549
v 12.333972 0.820511 -16.978680
v 12.219825 6.744576 -17.191093
v 12.333972 0.820511 -29.192476
v 12.219825 6.744576 -28.980062
v 9.251993 1.375892 -12.836608
v 9.023699 6.929703 -13.580057
# 166 vertices

vt 0.851563 0.625000
vt 0.882813 0.476563
vt 0.835938 0.480469
vt 0.769531 0.625000
vt 0.789063 0.480469
vt 0.734375 0.480469
vt 0.898438 0.562500
vt 0.933594 0.480469
vt 0.890625 0.335938
vt 0.839844 0.335938
vt 0.789063 0.335938
vt 0.734375 0.335938
vt 0.855469 0.253906
vt 0.816406 0.265625
vt 0.781250 0.277344
vt 0.734375 0.277344
vt 0.906250 0.242188
vt 0.812500 0.210938
vt 0.765625 0.222656
vt 0.917969 0.589844
vt 0.953125 0.515625
vt 0.941406 0.339844
vt 0.769531 0.175781
vt 0.707031 0.175781
vt 0.796875 0.109375
vt 0.832031 0.160156
vt 0.812500 0.058594
vt 0.921875 0.191406
vt 0.636719 0.480469
vt 0.589844 0.480469
vt 0.621094 0.625000
vt 0.703125 0.625000
vt 0.687500 0.480469
vt 0.539063 0.480469
vt 0.574219 0.562500
vt 0.632813 0.335938
vt 0.582031 0.335938
vt 0.683594 0.335938
vt 0.656250 0.265625
vt 0.617188 0.253906
vt 0.691406 0.277344
vt 0.593750 0.214844
vt 0.660156 0.210938
vt 0.710938 0.226563
vt 0.519531 0.507813
vt 0.554688 0.589844
vt 0.535156 0.339844
vt 0.675781 0.109375
vt 0.660156 0.058594
vt 0.640625 0.160156
vt 0.550781 0.191406
vt 0.734375 0.933594
vt 0.796875 0.875000
vt 0.757813 0.875000
vt 0.714844 0.875000
vt 0.675781 0.875000
vt 0.652344 0.933594
vt 0.644531 0.992188
vt 0.820313 0.933594
vt 0.835938 0.785156
vt 0.804688 0.785156
vt 0.769531 0.785156
vt 0.734375 0.785156
vt 0.703125 0.785156
vt 0.664063 0.785156
vt 0.636719 0.785156
vt 0.601563 0.832031
vt 0.582031 0.890625
vt 0.894531 0.890625
vt 0.871094 0.832031
vt 0.851563 0.695313
vt 0.812500 0.695313
vt 0.777344 0.695313
vt 0.734375 0.695313
vt 0.695313 0.695313
vt 0.664063 0.695313
vt 0.621094 0.695313
vt 0.574219 0.695313
vt 0.898438 0.695313
vt 0.929688 0.800781
vt 0.929688 0.890625
vt 0.542969 0.800781
vt 0.542969 0.890625
vt 0.132813 0.429688
vt 0.144531 0.351563
vt 0.132813 0.546875
vt 0.144531 0.621094
vt 0.105469 0.601563
vt 0.011719 0.621094
vt 0.050781 0.601563
vt 0.023438 0.546875
vt 0.023438 0.429688
vt 0.011719 0.351563
vt 0.062500 0.574219
vt 0.050781 0.546875
vt 0.050781 0.429688
vt 0.093750 0.574219
vt 0.105469 0.546875
vt 0.105469 0.429688
vt 0.062500 0.402344
vt 0.093750 0.402344
vt 0.105469 0.375000
vt 0.050781 0.375000
vt 0.933594 0.152344
vt 0.933594 0.140625
vt 0.917969 0.140625
vt 0.933594 0.105469
vt 0.910156 0.105469
vt 0.960938 0.105469
vt 0.953125 0.140625
vt 0.433594 0.105469
vt 0.460938 0.105469
vt 0.453125 0.140625
vt 0.433594 0.140625
vt 0.433594 0.152344
vt 0.410156 0.105469
vt 0.417969 0.140625
vt 0.433594 0.070313
vt 0.417969 0.070313
vt 0.433594 0.054688
vt 0.453125 0.070313
vt 0.933594 0.070313
vt 0.953125 0.070313
vt 0.933594 0.054688
vt 0.917969 0.070313
vt 0.964844 0.316406
vt 0.507813 0.316406
vt 0.898438 0.625000
vt 0.574219 0.625000
vt 0.023438 0.253906
vt 0.011719 0.058594
vt 0.023438 0.136719
vt 0.011719 0.328125
vt 0.050781 0.308594
vt 0.144531 0.328125
vt 0.105469 0.308594
vt 0.132813 0.253906
vt 0.132813 0.136719
vt 0.144531 0.058594
vt 0.093750 0.281250
vt 0.105469 0.253906
vt 0.105469 0.136719
vt 0.062500 0.281250
vt 0.050781 0.253906
vt 0.050781 0.136719
vt 0.093750 0.105469
vt 0.062500 0.105469
vt 0.050781 0.082031
vt 0.105469 0.082031
vt 0.453125 0.730469
vt 0.445313 0.777344
vt 0.406250 0.750000
vt 0.468750 0.917969
vt 0.445313 0.859375
vt 0.406250 0.859375
vt 0.328125 0.859375
vt 0.328125 0.742188
vt 0.250000 0.750000
vt 0.250000 0.859375
vt 0.210938 0.859375
vt 0.210938 0.777344
vt 0.187500 0.917969
vt 0.199219 0.730469
vt 0.328125 0.691406
vt 0.250000 0.640625
vt 0.406250 0.640625
vt 0.250000 0.703125
vt 0.406250 0.703125
vt 0.460938 0.640625
vt 0.328125 0.964844
vt 0.250000 0.960938
vt 0.250000 0.910156
vt 0.328125 0.910156
vt 0.406250 0.910156
vt 0.406250 0.960938
vt 0.441406 0.910156
vt 0.210938 0.910156
vt 0.195313 0.265625
vt 0.250000 0.390625
vt 0.195313 0.390625
vt 0.460938 0.390625
vt 0.406250 0.390625
vt 0.460938 0.265625
vt 0.390625 0.281250
vt 0.261719 0.160156
vt 0.394531 0.160156
vt 0.265625 0.281250
vt 0.449219 0.441406
vt 0.468750 0.441406
vt 0.449219 0.589844
vt 0.468750 0.621094
vt 0.445313 0.621094
vt 0.445313 0.410156
vt 0.375000 0.441406
vt 0.246094 0.589844
vt 0.246094 0.441406
vt 0.375000 0.589844
vt 0.371094 0.621094
vt 0.250000 0.621094
vt 0.371094 0.410156
vt 0.250000 0.410156
vt 0.175781 0.589844
vt 0.156250 0.441406
vt 0.175781 0.441406
vt 0.156250 0.621094
vt 0.179688 0.621094
vt 0.179688 0.410156
vt 0.191406 0.640625
# 208 texture coordinates

vn -0.262866 -0.162460 -0.951056
vn 0.000000 0.295242 -0.955423
vn -0.500000 0.309017 -0.809017
vn -0.850651 0.000000 -0.525731
vn -0.864188 0.238856 -0.442863
vn -0.951056 0.262866 0.162460
vn 0.500000 0.309017 -0.809017
vn 0.425325 0.587785 -0.688191
vn 0.000000 -0.295242 -0.955423
vn -0.500000 -0.309017 -0.809017
vn -0.864188 -0.238856 -0.442863
vn -1.000000 0.000000 -0.000000
vn 0.000000 -0.525731 -0.850651
vn -0.425325 -0.587785 -0.688191
vn -0.587785 -0.688191 -0.425325
vn -0.850651 -0.525731 -0.000000
vn 0.500000 -0.309017 -0.809017
vn 0.309017 -0.809017 -0.500000
vn -0.162460 -0.951056 -0.262866
vn 0.587785 0.688191 -0.425325
vn 0.809017 0.500000 -0.309017
vn 0.525731 0.000000 -0.850651
vn 0.295242 -0.955423 -0.000000
vn 0.955423 0.000000 -0.295242
vn 0.864188 0.238856 -0.442863
vn 0.681718 0.716567 0.147621
vn 0.951056 0.262866 -0.162460
vn -0.500000 0.309017 0.809017
vn 0.000000 0.295242 0.955423
vn -0.262866 -0.162460 0.951056
vn -0.850651 0.000000 0.525731
vn -0.864188 0.238856 0.442863
vn 0.425325 0.587785 0.688191
vn 0.500000 0.309017 0.809017
vn -0.500000 -0.309017 0.809017
vn 0.000000 -0.295242 0.955423
vn -0.864188 -0.238856 0.442863
vn -0.425325 -0.587785 0.688191
vn 0.000000 -0.525731 0.850651
vn -0.587785 -0.688191 0.425325
vn 0.500000 -0.309017 0.809017
vn 0.309017 -0.809017 0.500000
vn -0.162460 -0.951056 0.262866
vn 0.809017 0.500000 0.309017
vn 0.587785 0.688191 0.425325
vn 0.525731 0.000000 0.850651
vn 0.955423 0.000000 0.295242
vn 0.681718 0.716567 -0.147621
vn 0.864188 0.238856 0.442863
vn 0.951056 0.262866 0.162460
vn 0.000000 1.000000 -0.000000
vn -0.147621 0.681718 -0.716567
vn -0.587785 0.688191 -0.425325
vn -0.587785 0.688191 0.425325
vn -0.147621 0.681718 0.716567
vn 0.525731 0.850651 -0.000000
vn 0.000000 0.000000 -1.000000
vn -0.951056 -0.262866 -0.162460
vn 0.000000 0.000000 1.000000
vn 0.262866 -0.162460 0.951056
vn 0.262866 -0.162460 -0.951056
vn 0.850651 0.000000 -0.525731
vn 0.238856 -0.442863 -0.864188
vn 0.000000 0.525731 -0.850651
vn 0.162460 0.951056 -0.262866
vn -0.809017 0.500000 0.309017
vn -0.309017 0.809017 0.500000
vn -0.309017 -0.809017 0.500000
vn 0.162460 0.951056 0.262866
vn 0.238856 0.442863 0.864188
vn 0.850651 0.525731 -0.000000
vn 0.425325 -0.587785 0.688191
vn 0.809017 -0.500000 0.309017
vn 0.525731 -0.850651 -0.000000
vn -0.147621 -0.681718 0.716567
vn -0.681718 0.716567 -0.147621
vn -0.955423 0.000000 0.295242
vn 0.147621 0.681718 -0.716567
vn 0.681718 -0.716567 0.147621
vn 0.000000 -1.000000 -0.000000
vn 0.147621 -0.681718 -0.716567
vn -0.681718 -0.716567 -0.147621
vn 0.238856 -0.442863 0.864188
vn 0.850651 0.000000 0.525731
vn 0.000000 0.525731 0.850651
vn -0.809017 0.500000 -0.309017
vn -0.309017 0.809017 -0.500000
vn -0.309017 -0.809017 -0.500000
vn 0.238856 0.442863 -0.864188
vn 0.425325 -0.587785 -0.688191
vn 0.809017 -0.500000 -0.309017
vn -0.147621 -0.681718 -0.716567
vn 0.000000 -0.850651 -0.525731
vn 0.442863 -0.864188 -0.238856
vn -0.238856 0.442863 -0.864188
vn 0.951056 -0.262866 0.162460
vn 0.442863 -0.864188 0.238856
vn -0.238856 0.442863 0.864188
vn 0.000000 -0.850651 0.525731
vn 0.850651 -0.525731 -0.000000
vn 0.688191 -0.425325 0.587785
vn 0.688191 -0.425325 -0.587785
vn 0.295242 0.955423 -0.000000
vn 0.309017 0.809017 -0.500000
vn 0.309017 0.809017 0.500000
vn 0.716567 0.147621 0.681718
vn 0.716567 0.147621 -0.681718
vn 0.951056 -0.262866 -0.162460
vn 0.162460 -0.951056 -0.262866
vn 0.162460 -0.951056 0.262866
# 110 normals

g C:\Users\Bryan\Desktop\bstuff 1
s 1
f 3/1/1 2/2/2 1/3/3
f 1/3/3 4/4/4 3/1/1
f 4/4/4 1/3/3 5/5/5
f 4/4/4 5/5/5 6/6/6
f 8/7/7 7/8/8 2/2/2
f 2/2/2 3/1/1 8/7/7
f 2/2/2 10/9/9 9/10/10
f 9/10/10 1/3/3 2/2/2
f 1/3/3 9/10/10 11/11/11
f 11/11/11 5/5/5 1/3/3
f 5/5/5 11/11/11 12/12/12
f 12/12/12 6/6/6 5/5/5
f 10/9/9 14/13/13 13/14/14
f 13/14/14 9/10/10 10/9/9
f 9/10/10 13/14/14 15/15/15
f 15/15/15 11/11/11 9/10/10
f 11/11/11 15/15/15 16/16/16
f 16/16/16 12/12/12 11/11/11
f 14/13/13 10/9/9 17/17/17
f 18/18/18 13/14/14 14/13/13
f 13/14/14 18/18/18 19/19/19
f 19/19/19 15/15/15 13/14/14
f 19/19/19 16/16/16 15/15/15
f 21/20/20 20/21/21 8/7/7
f 7/8/8 8/7/7 20/21/21
f 22/22/22 17/17/17 10/9/9
f 2/2/2 7/8/8 22/22/22
f 22/22/22 10/9/9 2/2/2
f 19/19/19 24/23/23 23/24/23
f 25/25/24 24/23/23 18/18/18
f 27/26/25 26/27/26 25/25/24
f 28/28/27 26/27/26 27/26/25
f 27/26/25 17/17/17 28/28/27
f 25/25/24 18/18/18 27/26/25
f 17/17/17 27/26/25 18/18/18
f 18/18/18 14/13/13 17/17/17
f 31/29/28 30/30/29 29/31/30
f 29/31/30 32/32/31 31/29/28
f 33/33/32 31/29/28 32/32/31
f 6/6/6 33/33/32 32/32/31
f 32/32/31 4/4/4 6/6/6
f 30/30/29 35/34/33 34/35/34
f 34/35/34 29/31/30 30/30/29
f 37/36/35 36/37/36 30/30/29
f 30/30/29 31/29/28 37/36/35
f 38/38/37 37/36/35 31/29/28
f 31/29/28 33/33/32 38/38/37
f 12/12/12 38/38/37 33/33/32
f 33/33/32 6/6/6 12/12/12
f 40/39/38 39/40/39 36/37/36
f 36/37/36 37/36/35 40/39/38
f 41/41/40 40/39/38 37/36/35
f 37/36/35 38/38/37 41/41/40
f 16/16/16 41/41/40 38/38/37
f 38/38/37 12/12/12 16/16/16
f 42/42/41 36/37/36 39/40/39
f 39/40/39 40/39/38 43/43/42
f 44/44/43 43/43/42 40/39/38
f 40/39/38 41/41/40 44/44/43
f 34/35/34 46/45/44 45/46/45
f 46/45/44 34/35/34 35/34/33
f 36/37/36 42/42/41 47/47/46
f 47/47/46 35/34/33 30/30/29
f 30/30/29 36/37/36 47/47/46
f 24/23/23 25/25/24 23/24/23
f 25/25/24 48/48/47 23/24/23
f 49/49/48 48/48/47 25/25/24
f 49/49/48 25/25/24 26/27/26
f 43/43/42 23/24/23 48/48/47
f 48/48/47 49/49/48 50/50/49
f 50/50/49 49/49/48 51/51/50
f 51/51/50 42/42/41 50/50/49
f 50/50/49 43/43/42 48/48/47
f 43/43/42 50/50/49 42/42/41
f 42/42/41 39/40/39 43/43/42
f 54/52/51 53/53/52 52/54/53
f 54/52/51 52/54/53 55/55/54
f 54/52/51 55/55/54 56/56/55
f 54/52/51 56/56/55 57/57/45
f 54/52/51 57/57/45 58/58/56
f 54/52/51 58/59/8 53/53/52
f 53/53/52 60/60/2 59/61/3
f 59/61/3 52/54/53 53/53/52
f 52/54/53 59/61/3 61/62/5
f 52/54/53 61/62/5 62/63/6
f 62/63/6 55/55/54 52/54/53
f 55/55/54 62/63/6 63/64/32
f 55/55/54 63/64/32 64/65/28
f 64/65/28 56/56/55 55/55/54
f 56/56/55 64/65/28 65/66/29
f 56/56/55 65/66/29 66/67/34
f 66/67/34 57/57/45 56/56/55
f 57/57/45 66/67/34 67/68/44
f 67/68/44 58/58/56 57/57/45
f 58/59/8 67/69/25 68/70/7
f 68/70/7 53/53/52 58/59/8
f 53/53/52 68/70/7 60/60/2
f 60/60/2 70/71/57 69/72/10
f 69/72/10 59/61/3 60/60/2
f 59/61/3 69/72/10 71/73/4
f 71/73/4 61/62/5 59/61/3
f 61/62/5 71/73/4 72/74/58
f 72/74/58 62/63/6 61/62/5
f 63/64/32 74/75/37 73/76/35
f 73/76/35 64/65/28 63/64/32
f 64/65/28 73/76/35 75/77/59
f 75/77/59 65/66/29 64/65/28
f 65/66/29 75/77/59 76/78/60
f 76/78/60 66/67/34 65/66/29
f 68/70/7 77/79/61 70/71/57
f 70/71/57 60/60/2 68/70/7
f 4/4/4 71/73/4 69/72/10
f 4/4/4 72/74/58 71/73/4
f 72/74/58 4/4/4 32/32/31
f 32/32/31 74/75/37 72/74/58
f 32/32/31 73/76/35 74/75/37
f 73/76/35 32/32/31 29/31/30
f 29/31/30 75/77/59 73/76/35
f 3/1/1 70/71/57 77/79/61
f 68/70/7 78/80/25 77/79/61
f 78/80/25 68/70/7 67/69/25
f 67/69/25 79/81/27 78/80/25
f 76/78/60 80/82/49 66/67/34
f 80/82/49 79/83/50 67/68/44
f 80/82/49 67/68/44 66/67/34
f 62/63/6 72/74/58 74/75/37
f 74/75/37 63/64/32 62/63/6
f 83/84/62 82/85/63 81/86/7
f 81/86/7 82/85/63 84/87/64
f 81/86/7 84/87/64 85/88/65
f 84/87/64 86/89/66 85/88/65
f 86/89/66 87/90/67 85/88/65
f 88/91/28 87/90/67 86/89/66
f 86/89/66 89/92/35 88/91/28
f 90/93/68 89/92/35 86/89/66
f 87/90/67 91/94/69 85/88/65
f 92/95/70 91/94/69 87/90/67
f 88/91/28 92/95/70 87/90/67
f 88/91/28 93/96/60 92/95/70
f 89/92/35 93/96/60 88/91/28
f 91/94/69 94/97/56 85/88/65
f 95/98/71 94/97/56 91/94/69
f 92/95/70 95/98/71 91/94/69
f 92/95/70 96/99/47 95/98/71
f 93/96/60 96/99/47 92/95/70
f 95/98/71 83/84/62 81/86/7
f 96/99/47 83/84/62 95/98/71
f 97/100/72 96/99/47 93/96/60
f 97/100/72 98/101/73 96/99/47
f 99/102/74 98/101/73 97/100/72
f 100/103/75 93/96/60 89/92/35
f 100/103/75 97/100/72 93/96/60
f 99/102/74 97/100/72 100/103/75
f 90/93/68 100/103/75 89/92/35
f 99/102/74 100/103/75 90/93/68
f 99/102/74 90/93/68 82/85/63
f 99/102/74 82/85/63 83/84/62
f 103/104/51 102/105/76 101/106/55
f 101/106/55 102/105/76 104/107/77
f 104/107/77 105/108/60 101/106/55
f 106/109/1 104/107/77 102/105/76
f 102/105/76 107/110/78 106/109/1
f 103/104/51 107/110/78 102/105/76
f 108/111/24 106/112/1 107/113/78
f 107/113/78 109/114/26 108/111/24
f 103/115/51 109/114/26 107/113/78
f 105/116/60 108/111/24 109/114/26
f 109/114/26 101/117/55 105/116/60
f 103/115/51 101/117/55 109/114/26
f 112/118/79 111/119/75 110/120/80
f 105/116/60 111/119/75 112/118/79
f 112/118/79 108/111/24 105/116/60
f 113/121/81 112/118/79 110/120/80
f 108/111/24 112/118/79 113/121/81
f 113/121/81 106/112/1 108/111/24
f 114/122/82 113/123/81 110/124/80
f 106/109/1 113/123/81 114/122/82
f 114/122/82 104/107/77 106/109/1
f 111/125/75 105/108/60 104/107/77
f 104/107/77 114/122/82 111/125/75
f 111/125/75 114/122/82 110/124/80
f 41/41/40 16/16/16 44/44/43
f 44/44/43 16/16/16 19/19/19
f 69/72/10 70/71/57 3/1/1
f 69/72/10 3/1/1 4/4/4
f 18/18/18 24/23/23 19/19/19
f 44/44/43 23/24/23 43/43/42
f 23/24/23 44/44/43 19/19/19
f 28/28/27 17/17/17 22/22/22
f 28/28/27 22/22/22 115/126/24
f 47/47/46 42/42/41 51/51/50
f 116/127/47 47/47/46 51/51/50
f 117/128/81 8/7/7 3/1/1
f 117/128/81 3/1/1 77/79/61
f 29/31/30 34/35/34 118/129/39
f 76/78/60 29/31/30 118/129/39
f 29/31/30 76/78/60 75/77/59
f 121/130/34 120/131/83 119/132/84
f 122/133/85 120/131/83 121/130/34
f 123/134/69 122/133/85 121/130/34
f 123/134/69 124/135/86 122/133/85
f 123/134/69 125/136/87 124/135/86
f 124/135/86 125/136/87 126/137/3
f 126/137/3 127/138/10 124/135/86
f 124/135/86 127/138/10 128/139/88
f 123/134/69 129/140/65 125/136/87
f 125/136/87 129/140/65 130/141/89
f 125/136/87 130/141/89 126/137/3
f 130/141/89 131/142/61 126/137/3
f 126/137/3 131/142/61 127/138/10
f 123/134/69 132/143/56 129/140/65
f 129/140/65 132/143/56 133/144/71
f 129/140/65 133/144/71 130/141/89
f 133/144/71 134/145/24 130/141/89
f 130/141/89 134/145/24 131/142/61
f 121/130/34 119/132/84 133/144/71
f 133/144/71 119/132/84 134/145/24
f 131/142/61 134/145/24 135/146/90
f 134/145/24 136/147/91 135/146/90
f 135/146/90 136/147/91 137/148/74
f 127/138/10 131/142/61 138/149/92
f 131/142/61 135/146/90 138/149/92
f 138/149/92 135/146/90 137/148/74
f 127/138/10 138/149/92 128/139/88
f 128/139/88 138/149/92 137/148/74
f 120/131/83 128/139/88 137/148/74
f 119/132/84 120/131/83 137/148/74
f 137/148/74 136/147/91 134/145/24
f 134/145/24 119/132/84 137/148/74
f 133/144/71 132/143/56 123/134/69
f 133/144/71 123/134/69 121/130/34
f 96/99/47 98/101/73 99/102/74
f 99/102/74 83/84/62 96/99/47
f 85/88/65 94/97/56 95/98/71
f 81/86/7 85/88/65 95/98/71
f 8/150/93 117/151/90 139/152/94
f 77/153/95 140/154/22 117/151/90
f 117/151/90 141/155/62 139/152/94
f 141/155/62 142/156/96 139/152/94
f 144/157/74 142/156/96 143/158/97
f 143/158/97 142/156/96 145/159/84
f 145/159/84 146/160/46 118/161/72
f 118/161/72 146/160/46 76/162/98
f 143/158/97 118/161/72 34/163/99
f 117/151/90 140/154/22 141/155/62
f 142/156/96 144/157/74 139/152/94
f 118/161/72 143/158/97 145/159/84
f 149/164/100 148/165/26 147/166/48
f 149/164/100 45/167/101 148/165/26
f 21/168/102 149/164/100 147/166/48
f 45/167/101 143/158/97 34/163/99
f 8/150/93 139/152/94 21/168/102
f 147/166/48 20/169/20 21/168/102
f 139/152/94 149/164/100 21/168/102
f 139/152/94 144/157/74 149/164/100
f 144/157/74 143/158/97 149/164/100
f 143/158/97 45/167/101 149/164/100
f 79/170/103 80/171/51 150/172/45
f 150/172/45 151/173/71 79/170/103
f 79/170/103 151/173/71 152/174/20
f 152/174/20 78/175/51 79/170/103
f 153/176/104 140/154/22 77/153/95
f 153/176/104 152/174/20 141/155/62
f 153/176/104 141/155/62 140/154/22
f 152/174/20 151/173/71 141/155/62
f 151/173/71 142/156/96 141/155/62
f 151/173/71 145/159/84 142/156/96
f 145/159/84 151/173/71 150/172/45
f 145/159/84 150/172/45 154/177/105
f 154/177/105 146/160/46 145/159/84
f 76/162/98 146/160/46 154/177/105
f 51/178/84 155/179/84 116/180/106
f 115/181/107 156/182/24 28/183/62
f 154/177/105 150/172/45 80/171/51
f 154/177/105 80/171/51 76/162/98
f 78/175/51 152/174/20 153/176/104
f 77/153/95 78/175/51 153/176/104
f 157/184/108 49/185/96 26/186/108
f 157/184/108 158/187/47 49/185/96
f 157/184/108 26/186/108 28/183/62
f 51/178/84 49/185/96 158/187/47
f 158/187/47 155/179/84 51/178/84
f 28/183/62 156/182/24 157/184/108
f 156/182/24 155/179/84 158/187/47
f 156/182/24 158/187/47 157/184/108
f 160/188/102 22/189/17 159/190/20
f 7/191/20 159/190/20 22/189/17
f 159/190/20 7/191/20 20/192/56
f 22/189/17 160/188/102 115/193/109
f 163/194/91 162/195/26 161/196/79
f 163/194/91 164/197/21 162/195/26
f 162/195/26 164/197/21 147/198/51
f 148/199/51 162/195/26 147/198/51
f 156/200/23 163/194/91 161/196/79
f 156/200/23 161/196/79 155/201/23
f 160/188/102 159/190/20 164/197/21
f 164/197/21 163/194/91 160/188/102
f 159/190/20 147/198/51 164/197/21
f 159/190/20 20/192/56 147/198/51
f 115/193/109 160/188/102 163/194/91
f 163/194/91 156/200/23 115/193/109
f 166/202/45 47/203/41 165/204/101
f 47/203/41 166/202/45 35/205/45
f 46/206/56 35/205/45 166/202/45
f 116/207/110 165/204/101 47/203/41
f 162/195/26 166/202/45 165/204/101
f 165/204/101 161/196/79 162/195/26
f 162/195/26 148/199/51 166/202/45
f 148/199/51 46/206/56 166/202/45
f 161/196/79 165/204/101 116/207/110
f 116/207/110 155/201/23 161/196/79
f 46/208/45 148/165/26 45/167/101
# 312 triangles in group

# 312 triangles total

