
v  5.0000 0.0000 -5.0000
v  -5.0000 0.0000 -5.0000
v  -5.0000 0.0000 5.0000
v  5.0000 0.0000 5.0000
v  -5.0000 10.0000 5.0000
v  -5.0000 10.0000 -5.0000
v  5.0000 10.0000 -5.0000

v  5.0000 10.0000 5.0000

vt 0.316667 0.366667
vt 0.633333 0.683333
vt 0.316667 1.000000
vt 0.000000 0.683333
vt 0.633333 0.016667
vt 0.316667 0.333333
vt 0.000000 0.016667
vn -0.003661 0.999991 0.001979
vn -0.003661 0.999991 0.001979
vn -0.003661 0.999991 0.001979
vn -0.003661 0.999991 0.001979
vn 0.003661 -0.999991 -0.001979
vn 0.003661 -0.999991 -0.001979
vn 0.003661 -0.999991 -0.001979
usemtl __PS_3D_Default
f 1/1/1 2/2/2 3/3/3
f 3/3/3 4/4/4 1/1/1
f 5/5/5 6/6/6 7/7/7
