# Wavefront OBJ exported by MilkShape 3D

v 4.084930 0.901506 -20.197840
v 3.987206 -3.425426 -15.432004
v 3.987206 -1.134697 -15.432004
v 3.987206 -1.083792 -21.419849
v -8.375000 1.359652 -21.664251
v -8.375000 -1.338318 -23.252865
v -8.375000 -0.931077 -15.432004
v -8.375000 -4.087193 -15.432004
v 3.987206 0.901506 -10.788367
v -8.375000 -1.338318 -7.794444
v -8.375000 1.359652 -9.321956
v 3.987206 -1.083792 -9.566358
v 3.596306 3.701286 -21.969755
v 2.619056 3.955812 -22.825161
v 2.570194 -0.676552 -21.725353
v 3.694031 -0.218406 -20.564444
v 2.619056 7.417358 -18.181524
v 2.570194 0.239740 -19.342434
v 2.619056 3.446761 -21.175447
v 1.592944 3.701286 -21.969755
v 1.446357 -0.218406 -20.564444
v 0.615695 3.955812 -21.969755
v -0.410417 4.159432 -22.764061
v -0.410417 -0.676552 -21.725353
v 0.713420 -0.218406 -20.564444
v -0.410417 7.824598 -18.181524
v -0.410417 0.239740 -19.342434
v -0.410417 3.701286 -21.114347
v -1.387666 3.955812 -21.969755
v -1.583116 -0.218406 -20.564444
v -2.413778 4.261242 -22.153055
v -3.391028 4.515768 -23.069563
v -3.439890 -0.676552 -21.908653
v -2.316053 -0.218406 -20.564444
v -3.391028 8.333650 -18.181524
v -3.439890 0.290645 -19.159132
v -3.391028 4.006717 -21.175447
v -4.417140 4.261242 -22.153055
v -4.563727 -0.218406 -20.564444
v -5.394389 4.668483 -22.336357
v -6.420501 4.923008 -23.375065
v -6.420501 -0.727457 -22.030855
v -5.296664 -0.218406 -20.503344
v -6.420501 8.893605 -18.181524
v -6.420501 0.290645 -18.975832
v -6.420501 4.363052 -21.236549
v -7.397750 4.668483 -22.336357
v -7.544338 -0.218406 -20.503344
v 2.570194 -0.676552 -9.383057
v 2.619056 4.006717 -8.283248
v 3.596306 3.701286 -9.077554
v 3.694031 -0.218406 -10.605066
v 2.619056 7.417358 -13.110186
v 2.570194 0.239740 -11.765975
v 2.619056 3.395856 -9.932961
v 1.592944 3.701286 -9.077554
v 1.446357 -0.218406 -10.605066
v -0.410417 -0.676552 -9.383057
v -0.410417 4.210337 -8.344348
v 0.615695 3.904907 -9.138655
v 0.713420 -0.218406 -10.605066
v -0.410417 7.824598 -13.110186
v -0.410417 0.239740 -11.765975
v -0.410417 3.650381 -9.994061
v -1.387666 3.904907 -9.138655
v -1.583116 -0.218406 -10.605066
v -3.439890 -0.676552 -9.199755
v -3.391028 4.617578 -8.038846
v -2.413778 4.261242 -8.955353
v -2.316053 -0.218406 -10.605066
v -3.391028 8.333650 -13.110186
v -3.439890 0.290645 -11.949276
v -3.391028 3.955812 -9.932961
v -4.417140 4.261242 -8.955353
v -4.563727 -0.218406 -10.605066
v -6.420501 -0.727457 -9.077554
v -6.420501 5.024818 -7.794444
v -5.394389 4.668483 -8.833152
v -5.296664 -0.218406 -10.605066
v -6.420501 8.893605 -13.110186
v -6.420501 0.290645 -12.193678
v -6.420501 4.312147 -9.871861
v -7.397750 4.668483 -8.833152
v -7.544338 -0.218406 -10.605066
# 84 vertices

vt 0.718750 0.062500
vt 0.718750 0.015625
vt 0.078125 0.062500
vt 0.000000 0.015625
vt 0.109375 0.968750
vt 0.000000 1.000000
vt 0.718750 0.968750
vt 0.718750 0.992188
vt 0.093750 0.968750
vt 0.953125 0.078125
vt 0.921875 0.562500
vt 0.859375 0.562500
vt 0.843750 0.078125
vt 0.859375 0.929688
vt 0.734375 0.078125
vt 0.781250 0.562500
# 16 texture coordinates

vn 0.681718 0.716567 0.147621
vn 0.681718 -0.716567 0.147621
vn 0.809017 0.500000 -0.309017
vn 0.500000 -0.309017 -0.809017
vn -0.162460 0.951056 -0.262866
vn -0.864188 -0.238856 -0.442863
vn -0.681718 0.716567 -0.147621
vn -0.681718 -0.716567 -0.147621
vn -0.809017 0.500000 0.309017
vn -0.238856 -0.442863 0.864188
vn 0.442863 0.864188 0.238856
vn 0.864188 -0.238856 0.442863
vn 0.000000 -0.295242 -0.955423
vn 0.000000 0.295242 -0.955423
vn 1.000000 0.000000 -0.000000
vn 0.000000 0.850651 0.525731
vn 0.000000 0.525731 0.850651
vn 0.000000 0.000000 1.000000
vn -1.000000 0.000000 -0.000000
vn 0.000000 0.295242 0.955423
vn -0.162460 0.951056 0.262866
vn 0.000000 -0.295242 0.955423
vn 0.000000 0.850651 -0.525731
vn 0.000000 0.525731 -0.850651
vn 0.000000 0.000000 -1.000000
# 25 normals

g C:\Program Files (x86)\Cube\pac
s 1
f 3/1/1 2/2/2 1/3/3
f 2/2/2 4/4/4 1/3/3
f 1/3/3 4/4/4 5/5/5
f 4/4/4 6/6/6 5/5/5
f 5/5/5 6/6/6 7/7/7
f 6/6/6 8/8/8 7/7/7
f 11/9/9 10/6/10 9/3/11
f 10/6/10 12/4/12 9/3/11
f 7/7/7 3/1/1 5/5/5
f 3/1/1 1/3/3 5/5/5
f 2/2/2 8/8/8 4/4/4
f 8/8/8 6/6/6 4/4/4
f 11/9/9 7/7/7 8/8/8
f 11/9/9 8/8/8 10/6/10
f 9/3/11 3/1/1 7/7/7
f 9/3/11 7/7/7 11/9/9
f 10/6/10 8/8/8 2/2/2
f 10/6/10 2/2/2 12/4/12
f 12/4/12 2/2/2 3/1/1
f 12/4/12 3/1/1 9/3/11
f 15/10/13 14/11/14 13/12/15
f 15/10/13 13/12/15 16/13/15
f 14/11/14 17/14/16 13/12/15
f 16/13/15 13/12/15 18/15/17
f 13/12/15 19/16/18 18/15/17
f 13/12/15 17/14/16 19/16/18
f 18/15/17 19/16/18 20/12/19
f 18/15/17 20/12/19 21/13/19
f 19/16/18 17/14/16 20/12/19
f 21/13/19 20/12/19 15/10/13
f 20/12/19 14/11/14 15/10/13
f 20/12/19 17/14/16 14/11/14
f 24/10/13 23/11/14 22/12/15
f 24/10/13 22/12/15 25/13/15
f 23/11/14 26/14/16 22/12/15
f 25/13/15 22/12/15 27/15/20
f 22/12/15 28/16/18 27/15/20
f 22/12/15 26/14/16 28/16/18
f 27/15/20 28/16/18 29/12/19
f 27/15/20 29/12/19 30/13/19
f 28/16/18 26/14/16 29/12/19
f 30/13/19 29/12/19 24/10/13
f 29/12/19 23/11/14 24/10/13
f 29/12/19 26/14/16 23/11/14
f 33/10/13 32/11/14 31/12/15
f 33/10/13 31/12/15 34/13/15
f 32/11/14 35/14/16 31/12/15
f 34/13/15 31/12/15 36/15/17
f 31/12/15 37/16/18 36/15/17
f 31/12/15 35/14/16 37/16/18
f 36/15/17 37/16/18 38/12/19
f 36/15/17 38/12/19 39/13/19
f 37/16/18 35/14/16 38/12/19
f 39/13/19 38/12/19 33/10/13
f 38/12/19 32/11/14 33/10/13
f 38/12/19 35/14/16 32/11/14
f 42/10/13 41/11/14 40/12/15
f 42/10/13 40/12/15 43/13/15
f 41/11/14 44/14/21 40/12/15
f 43/13/15 40/12/15 45/15/17
f 40/12/15 46/16/18 45/15/17
f 40/12/15 44/14/21 46/16/18
f 45/15/17 46/16/18 47/12/19
f 45/15/17 47/12/19 48/13/19
f 46/16/18 44/14/21 47/12/19
f 48/13/19 47/12/19 42/10/13
f 47/12/19 41/11/14 42/10/13
f 47/12/19 44/14/21 41/11/14
f 51/12/15 50/11/20 49/10/22
f 52/13/15 51/12/15 49/10/22
f 51/12/15 53/14/23 50/11/20
f 54/15/24 51/12/15 52/13/15
f 54/15/24 55/16/25 51/12/15
f 55/16/25 53/14/23 51/12/15
f 56/12/19 55/16/25 54/15/24
f 57/13/19 56/12/19 54/15/24
f 56/12/19 53/14/23 55/16/25
f 49/10/22 56/12/19 57/13/19
f 49/10/22 50/11/20 56/12/19
f 50/11/20 53/14/23 56/12/19
f 60/12/15 59/11/20 58/10/22
f 61/13/15 60/12/15 58/10/22
f 60/12/15 62/14/23 59/11/20
f 63/15/24 60/12/15 61/13/15
f 63/15/24 64/16/25 60/12/15
f 64/16/25 62/14/23 60/12/15
f 65/12/19 64/16/25 63/15/24
f 66/13/19 65/12/19 63/15/24
f 65/12/19 62/14/23 64/16/25
f 58/10/22 65/12/19 66/13/19
f 58/10/22 59/11/20 65/12/19
f 59/11/20 62/14/23 65/12/19
f 69/12/15 68/11/20 67/10/22
f 70/13/15 69/12/15 67/10/22
f 69/12/15 71/14/23 68/11/20
f 72/15/24 69/12/15 70/13/15
f 72/15/24 73/16/25 69/12/15
f 73/16/25 71/14/23 69/12/15
f 74/12/19 73/16/25 72/15/24
f 75/13/19 74/12/19 72/15/24
f 74/12/19 71/14/23 73/16/25
f 67/10/22 74/12/19 75/13/19
f 67/10/22 68/11/20 74/12/19
f 68/11/20 71/14/23 74/12/19
f 78/12/15 77/11/20 76/10/22
f 79/13/15 78/12/15 76/10/22
f 78/12/15 80/14/23 77/11/20
f 81/15/24 78/12/15 79/13/15
f 81/15/24 82/16/25 78/12/15
f 82/16/25 80/14/23 78/12/15
f 83/12/19 82/16/25 81/15/24
f 84/13/19 83/12/19 81/15/24
f 83/12/19 80/14/23 82/16/25
f 76/10/22 83/12/19 84/13/19
f 76/10/22 77/11/20 83/12/19
f 77/11/20 80/14/23 83/12/19
# 116 triangles in group

# 116 triangles total

