# Wavefront OBJ exported by MilkShape 3D

v -0.678159 0.408444 -1.107372
v -0.311607 0.585808 -1.166493
v -0.749105 0.538511 -1.178318
v 0.409672 0.597632 -1.249263
v 0.125890 0.479390 -1.261087
v 0.149538 0.396620 -1.000954
v -0.311607 0.585808 -0.847238
v -0.110595 0.467566 -1.000954
v 0.445145 0.573984 -1.000954
v 0.125890 0.479390 -0.752644
v 0.397848 0.597632 -0.752644
v -0.287959 0.905063 -0.740820
v -0.678159 0.408444 -0.894535
v -0.749105 0.538511 -0.823590
v -0.276135 0.905063 -1.272912
v -1.494032 0.231081 -0.977305
v -1.517681 0.290202 -0.941832
v -1.505857 0.290202 -1.071899
v -1.494032 0.231081 -1.048251
v -2.168015 0.337499 -1.000954
v -2.191663 0.361147 -0.989129
v -2.191663 0.361147 -1.048251
v -2.168015 0.337499 -1.036427
v -2.439972 0.503038 -1.024602
v 0.315078 1.094251 -0.598929
v 0.149538 1.165196 -0.575281
v 0.397848 1.425330 -0.610753
v 0.468793 1.378033 -0.634402
v 0.397848 1.200669 -0.752644
v 0.456969 1.425330 -0.669875
v 0.409672 1.200669 -1.249263
v 0.149538 1.165196 -1.426627
v 0.397848 1.425330 -1.379330
v 0.468793 1.437154 -1.332033
v 0.326902 1.094251 -1.414803
v 0.480617 1.366209 -1.379330
v 0.563387 1.543572 -0.634402
v 0.563387 1.543572 -1.367506
v 0.492442 0.928711 -1.154669
v 0.492442 0.928711 -0.847238
v 0.445145 1.224318 -1.000954
v 0.291429 0.786820 -0.598929
v -0.004177 1.307087 -0.752644
v 0.338726 1.330736 -1.000954
v -0.110595 1.330736 -1.000954
v -0.004177 1.307087 -1.261087
v 0.149538 0.905063 -1.509397
v 0.303254 0.786820 -1.414803
v 0.149538 0.633105 -1.426627
v 0.149538 0.633105 -0.575281
v 0.480617 0.715875 -0.847238
v 0.492442 0.715875 -1.154669
v 0.149538 0.905063 -0.504335
v 0.149538 0.384796 -1.438451
v 0.125890 0.420269 -1.261087
v 0.114066 0.420269 -0.752644
v 0.137714 0.384796 -0.575281
v 0.125890 0.266553 -1.332033
v 0.125890 0.266553 -1.225615
v 0.125890 0.266553 -0.788117
v 0.125890 0.266553 -0.681699
v 0.031296 0.089190 -1.426627
v 0.031296 0.101014 -1.225615
v 0.031296 0.101014 -0.788117
v 0.031296 0.089190 -0.610753
v -0.252486 1.153372 -1.166493
v -0.098771 1.058778 -1.414803
v -0.264310 1.153372 -0.847238
v -0.110595 1.058778 -0.598929
v -0.784577 0.692226 -0.894535
v -0.784577 0.692226 -1.107372
v -1.494032 0.361147 -0.977305
v -1.494032 0.361147 -1.048251
v -2.168015 0.384796 -1.000954
v -2.168015 0.384796 -1.036427
v 0.208660 0.715875 -1.000954
v 0.185011 0.715875 -0.740820
v 0.185011 0.715875 -1.272912
v -0.098771 0.739523 -1.414803
v -0.110595 0.739523 -0.598929
v -0.098771 0.467566 -1.414803
v -0.299783 0.514863 -1.166493
v -0.098771 0.467566 -0.598929
v -0.299783 0.514863 -0.859063
v 0.043120 0.266553 -1.320209
v 0.043120 0.266553 -1.225615
v 0.043120 0.266553 -0.693523
v 0.043120 0.266553 -0.788117
v -0.051474 0.101014 -1.225615
v -0.039650 0.101014 -1.320209
v -0.051474 0.101014 -0.693523
v -0.051474 0.101014 -0.788117
v 0.421496 0.704051 -0.859063
v 0.386023 0.857766 -0.811766
v 0.386023 0.715875 -0.882711
v 0.409672 0.692226 -0.811766
v 0.362375 0.692226 -0.811766
v 0.350551 0.704051 -0.859063
v 0.386023 0.715875 -1.131021
v 0.386023 0.857766 -1.201966
v 0.421496 0.704051 -1.154669
v 0.409672 0.692226 -1.201966
v 0.374199 0.692226 -1.201966
v 0.350551 0.704051 -1.166493
v 0.149538 0.101014 -1.225615
v 0.149538 0.089190 -1.320209
v 0.149538 0.089190 -1.426627
v 0.031296 -0.005404 -1.225615
v -0.051474 -0.005404 -1.320209
v -0.051474 -0.005404 -1.225615
v 0.031296 -0.005404 -1.379330
v 0.149538 -0.005404 -1.426627
v 0.149538 -0.005404 -1.225615
v 0.149538 -0.005404 -1.332033
v 0.409672 -0.005404 -1.450275
v 0.374199 -0.005404 -1.154669
v 0.149538 0.101014 -0.788117
v -0.051474 -0.005404 -0.788117
v -0.051474 -0.005404 -0.693523
v 0.031296 -0.005404 -0.610753
v 0.031296 -0.005404 -0.788117
v 0.149538 -0.005404 -0.788117
v 0.149538 0.089190 -0.587105
v 0.149538 0.089190 -0.681699
v 0.137714 -0.005404 -0.587105
v 0.149538 -0.005404 -0.681699
v 0.397848 -0.005404 -0.539808
v 0.374199 -0.005404 -0.870887
# 128 vertices

vt 0.410156 0.195313
vt 0.257813 0.203125
vt 0.382813 0.230469
vt 0.101563 0.277344
vt 0.109375 0.152344
vt 0.011719 0.152344
vt 0.191406 0.277344
vt 0.257813 0.355469
vt 0.000000 0.277344
vt 0.109375 0.402344
vt 0.011719 0.402344
vt 0.382813 0.332031
vt 0.246094 0.410156
vt 0.410156 0.371094
vt 0.246094 0.148438
vt 0.664063 0.300781
vt 0.667969 0.312500
vt 0.667969 0.250000
vt 0.664063 0.261719
vt 0.894531 0.289063
vt 0.902344 0.296875
vt 0.902344 0.265625
vt 0.894531 0.273438
vt 0.988281 0.281250
vt 0.433594 0.066406
vt 0.269531 0.082031
vt 0.222656 0.074219
vt 0.402344 0.058594
vt 0.292969 0.011719
vt 0.429688 0.042969
vt 0.292969 0.015625
vt 0.433594 0.070313
vt 0.429688 0.062500
vt 0.269531 0.078125
vt 0.441406 0.042969
vt 0.390625 0.062500
vt 0.503906 0.054688
vt 0.503906 0.058594
vt 0.300781 0.871094
vt 0.207031 0.753906
vt 0.394531 0.753906
vt 0.058594 0.699219
vt 0.058594 0.816406
vt 0.152344 0.863281
vt 0.042969 0.847656
vt 0.152344 0.968750
vt 0.300781 1.000000
vt 0.300781 0.914063
vt 0.453125 0.863281
vt 0.453125 0.968750
vt 0.558594 0.847656
vt 0.546875 0.816406
vt 0.605469 0.746094
vt 0.558594 0.640625
vt 0.546875 0.699219
vt 0.453125 0.625000
vt 0.453125 0.582031
vt 0.042969 0.640625
vt 0.152344 0.582031
vt 0.152344 0.625000
vt 0.300781 0.621094
vt 0.207031 0.671875
vt 0.394531 0.671875
vt 0.000000 0.746094
vt 0.562500 0.546875
vt 0.457031 0.558594
vt 0.156250 0.558594
vt 0.046875 0.546875
vt 0.500000 0.500000
vt 0.433594 0.500000
vt 0.171875 0.500000
vt 0.109375 0.500000
vt 0.558594 0.433594
vt 0.433594 0.433594
vt 0.171875 0.433594
vt 0.062500 0.433594
vt 0.882813 0.121094
vt 0.925781 0.187500
vt 0.828125 0.164063
vt 0.820313 0.191406
vt 0.890625 0.230469
vt 0.984375 0.238281
vt 0.828125 0.078125
vt 0.984375 0.003906
vt 0.925781 0.050781
vt 0.890625 0.007813
vt 0.820313 0.046875
vt 0.644531 0.070313
vt 0.628906 0.089844
vt 0.628906 0.148438
vt 0.644531 0.167969
vt 0.351563 0.101563
vt 0.363281 0.109375
vt 0.363281 0.128906
vt 0.351563 0.136719
vt 0.093750 0.109375
vt 0.101563 0.113281
vt 0.101563 0.121094
vt 0.093750 0.125000
vt 0.000000 0.117188
vt 0.687500 0.843750
vt 0.808594 0.855469
vt 0.738281 1.000000
vt 0.929688 0.843750
vt 0.882813 1.000000
vt 0.996094 0.902344
vt 0.882813 0.996094
vt 0.738281 0.996094
vt 0.621094 0.902344
vt 0.625000 0.902344
vt 0.640625 0.839844
vt 0.640625 0.738281
vt 0.800781 0.796875
vt 0.914063 0.738281
vt 0.800781 0.679688
vt 0.640625 0.636719
vt 0.933594 0.617188
vt 0.800781 0.570313
vt 0.648438 0.542969
vt 0.660156 0.554688
vt 0.656250 0.578125
vt 0.929688 0.589844
vt 0.710938 0.496094
vt 0.656250 0.496094
vt 0.656250 0.492188
vt 0.769531 0.429688
vt 0.765625 0.429688
vt 0.714844 0.429688
vt 0.015625 0.007813
vt 0.015625 0.089844
vt 0.042969 0.007813
vt 0.070313 0.089844
vt 0.070313 0.007813
vt 0.101563 0.007813
vt 0.128906 0.089844
vt 0.128906 0.007813
vt 0.156250 0.007813
vt 0.929688 0.414063
vt 0.878906 0.359375
vt 0.878906 0.414063
vt 0.980469 0.414063
vt 0.878906 0.312500
vt 0.925781 0.316406
vt 0.878906 0.355469
vt 0.957031 0.355469
vt 0.878906 0.316406
vt 0.925781 0.320313
vt 0.980469 0.359375
vt 0.996094 0.535156
vt 0.847656 0.523438
vt 0.875000 0.414063
vt 0.875000 0.359375
vt 0.964844 0.359375
vt 0.964844 0.355469
vt 0.921875 0.316406
vt 0.875000 0.316406
vt 0.875000 0.355469
vt 0.921875 0.320313
vt 0.871094 0.320313
vt 0.871094 0.316406
vt 0.875000 0.320313
vt 0.925781 0.414063
vt 0.976563 0.414063
vt 0.992188 0.535156
vt 0.835938 0.519531
# 165 texture coordinates

vn 0.000000 0.000000 -1.000000
vn -0.309017 -0.809017 -0.500000
vn 0.309017 -0.809017 -0.500000
vn 0.295242 -0.955423 -0.000000
vn 0.525731 -0.850651 -0.000000
vn 0.587785 -0.688191 -0.425325
vn -0.295242 -0.955423 -0.000000
vn -0.309017 -0.809017 0.500000
vn 0.850651 -0.525731 -0.000000
vn 0.442863 -0.864188 -0.238856
vn 0.587785 -0.688191 0.425325
vn 0.309017 -0.809017 0.500000
vn -0.525731 0.000000 0.850651
vn -0.262866 -0.162460 0.951056
vn -0.525731 0.000000 -0.850651
vn 0.000000 -0.850651 0.525731
vn 0.000000 0.000000 1.000000
vn 0.000000 -0.850651 -0.525731
vn -0.262866 -0.162460 -0.951056
vn -0.850651 -0.525731 -0.000000
vn -0.238856 0.442863 0.864188
vn -0.147621 0.681718 0.716567
vn 0.525731 0.000000 0.850651
vn 0.864188 -0.238856 0.442863
vn 0.809017 0.500000 0.309017
vn 0.000000 0.295242 -0.955423
vn -0.681718 0.716567 -0.147621
vn 0.000000 0.525731 -0.850651
vn 0.681718 0.716567 -0.147621
vn 0.262866 0.162460 0.951056
vn 0.716567 -0.147621 -0.681718
vn 0.864188 0.238856 -0.442863
vn 0.309017 0.809017 0.500000
vn 0.850651 0.525731 -0.000000
vn 0.951056 -0.262866 0.162460
vn 0.951056 -0.262866 -0.162460
vn 0.716567 -0.147621 0.681718
vn -0.309017 0.809017 0.500000
vn -0.525731 0.850651 -0.000000
vn 0.295242 0.955423 -0.000000
vn -0.309017 0.809017 -0.500000
vn 0.262866 -0.162460 -0.951056
vn 0.500000 -0.309017 0.809017
vn 0.681718 0.716567 0.147621
vn 0.688191 -0.425325 -0.587785
vn 0.716567 0.147621 0.681718
vn 0.716567 0.147621 -0.681718
vn 0.688191 -0.425325 0.587785
vn 0.238856 0.442863 0.864188
vn 0.525731 0.000000 -0.850651
vn -0.587785 0.688191 -0.425325
vn -0.500000 0.309017 -0.809017
vn -0.587785 0.688191 0.425325
vn -0.500000 0.309017 0.809017
vn 0.000000 0.850651 0.525731
vn 0.147621 0.681718 -0.716567
vn 0.951056 0.262866 -0.162460
vn 0.951056 0.262866 0.162460
vn 0.864188 0.238856 0.442863
vn -0.500000 -0.309017 -0.809017
vn -0.688191 -0.425325 0.587785
vn -0.500000 -0.309017 0.809017
vn -0.425325 -0.587785 -0.688191
vn -0.716567 -0.147621 -0.681718
vn -0.716567 -0.147621 0.681718
vn -0.716567 0.147621 0.681718
vn -0.864188 0.238856 -0.442863
vn -0.864188 0.238856 0.442863
vn -0.716567 0.147621 -0.681718
vn -0.162460 0.951056 0.262866
vn -0.951056 0.262866 -0.162460
vn 0.162460 0.951056 -0.262866
vn 0.000000 0.525731 0.850651
vn -0.951056 0.262866 0.162460
vn 0.525731 0.850651 -0.000000
vn 0.000000 0.850651 -0.525731
vn -0.809017 -0.500000 0.309017
vn -0.587785 -0.688191 -0.425325
vn 0.000000 -0.525731 0.850651
vn -0.162460 -0.951056 -0.262866
vn -0.147621 -0.681718 -0.716567
vn -0.425325 -0.587785 0.688191
vn -0.951056 -0.262866 0.162460
vn 0.000000 -0.525731 -0.850651
# 84 normals

g C:\Program Files (x86)\Cube\pac
s 1
f 3/1/1 2/2/2 1/3/3
f 6/4/4 5/5/5 4/6/6
f 8/7/7 7/8/8 2/2/2
f 8/7/7 2/2/2 5/5/5
f 8/7/7 5/5/5 6/4/4
f 9/9/9 6/4/4 4/6/6
f 8/7/7 6/4/4 10/10/10
f 9/9/9 11/11/11 6/4/4
f 10/10/10 6/4/4 11/11/11
f 8/7/7 10/10/10 7/8/8
f 13/12/12 7/8/8 12/13/13
f 13/12/12 12/13/13 14/14/14
f 3/1/1 15/15/15 2/2/2
f 1/3/3 2/2/2 7/8/8
f 1/3/3 7/8/8 13/12/12
f 16/16/16 13/12/12 14/14/14
f 16/16/16 14/14/14 17/17/17
f 18/18/1 3/1/1 1/3/3
f 18/18/1 1/3/3 19/19/18
f 19/19/18 1/3/3 13/12/12
f 19/19/18 13/12/12 16/16/16
f 20/20/8 16/16/16 17/17/17
f 20/20/8 17/17/17 21/21/17
f 22/22/19 18/18/1 19/19/18
f 22/22/19 19/19/18 23/23/2
f 23/23/2 19/19/18 16/16/16
f 23/23/2 16/16/16 20/20/8
f 24/24/20 20/20/8 21/21/17
f 24/24/20 22/22/19 23/23/2
f 24/24/20 23/23/2 20/20/8
f 27/25/21 26/26/22 25/27/23
f 27/25/21 25/27/23 28/28/24
f 28/28/24 25/27/23 29/29/25
f 28/28/24 29/29/25 30/30/26
f 30/30/26 29/31/25 26/26/22
f 30/30/26 26/26/22 27/32/21
f 33/33/27 32/34/28 31/29/29
f 33/33/27 31/29/29 34/35/30
f 34/35/30 31/29/29 35/27/31
f 34/35/30 35/27/31 36/36/31
f 36/36/31 35/27/31 32/26/28
f 36/36/31 32/26/28 33/33/27
f 37/37/32 27/25/21 28/28/24
f 37/37/32 28/28/24 30/30/26
f 37/38/32 30/30/26 27/32/21
f 38/37/33 33/33/27 34/35/30
f 38/37/33 34/35/30 36/36/31
f 38/37/33 36/36/31 33/33/27
f 41/39/34 40/40/35 39/41/36
f 42/42/37 40/40/35 25/43/23
f 41/39/34 29/44/25 40/40/35
f 25/43/23 40/40/35 29/44/25
f 26/45/22 29/44/25 43/46/38
f 45/47/39 43/46/38 44/48/40
f 41/39/34 44/48/40 29/44/25
f 43/46/38 29/44/25 44/48/40
f 41/39/34 31/49/29 44/48/40
f 45/47/39 44/48/40 46/50/41
f 32/51/28 46/50/41 31/49/29
f 44/48/40 31/49/29 46/50/41
f 41/39/34 39/41/36 31/49/29
f 31/49/29 39/41/36 35/52/31
f 32/51/28 35/52/31 47/53/1
f 49/54/42 47/53/1 48/55/31
f 39/41/36 48/55/31 35/52/31
f 47/53/1 35/52/31 48/55/31
f 49/54/42 4/56/6 5/57/5
f 50/58/43 10/59/10 11/60/11
f 50/58/43 11/60/11 42/42/37
f 9/61/9 51/62/44 11/60/11
f 42/42/37 11/60/11 51/62/44
f 9/61/9 52/63/29 51/62/44
f 9/61/9 4/56/6 52/63/29
f 49/54/42 48/55/31 4/56/6
f 52/63/29 4/56/6 48/55/31
f 26/45/22 53/64/17 25/43/23
f 50/58/43 42/42/37 53/64/17
f 25/43/23 53/64/17 42/42/37
f 54/65/45 49/54/42 5/57/5
f 54/65/45 5/57/5 55/66/46
f 56/67/47 10/59/10 50/58/43
f 56/67/47 50/58/43 57/68/37
f 58/69/31 54/65/45 55/66/46
f 58/69/31 55/66/46 59/70/37
f 60/71/31 56/67/47 57/68/37
f 60/71/31 57/68/37 61/72/48
f 62/73/1 58/69/31 59/70/37
f 62/73/1 59/70/37 63/74/49
f 64/75/50 60/71/31 61/72/48
f 64/75/50 61/72/48 65/76/22
f 45/77/39 46/78/41 66/79/51
f 15/80/15 66/79/51 67/81/52
f 32/82/28 67/81/52 46/78/41
f 66/79/51 46/78/41 67/81/52
f 45/77/39 66/79/51 68/83/53
f 26/84/22 43/85/38 69/86/54
f 12/87/13 69/86/54 68/83/53
f 45/77/39 68/83/53 43/85/38
f 69/86/54 43/85/38 68/83/53
f 14/88/14 12/87/13 68/83/53
f 14/88/14 68/83/53 70/89/53
f 71/90/51 66/79/51 15/80/15
f 71/90/51 15/80/15 3/91/1
f 70/89/53 68/83/53 66/79/51
f 70/89/53 66/79/51 71/90/51
f 17/92/17 14/88/14 70/89/53
f 17/92/17 70/89/53 72/93/38
f 73/94/41 71/90/51 3/91/1
f 73/94/41 3/91/1 18/95/1
f 72/93/38 70/89/53 71/90/51
f 72/93/38 71/90/51 73/94/41
f 21/96/17 17/92/17 72/93/38
f 21/96/17 72/93/38 74/97/55
f 75/98/56 73/94/41 18/95/1
f 75/98/56 18/95/1 22/99/19
f 74/97/55 72/93/38 73/94/41
f 74/97/55 73/94/41 75/98/56
f 24/100/20 21/96/17 74/97/55
f 24/100/20 75/98/56 22/99/19
f 24/100/20 74/97/55 75/98/56
f 77/101/57 76/102/58 40/103/35
f 78/104/59 39/105/36 76/102/58
f 40/103/35 76/102/58 39/105/36
f 77/104/57 42/106/37 51/107/44
f 77/104/57 51/107/44 76/102/58
f 78/101/59 76/102/58 52/108/29
f 76/102/58 51/107/44 52/108/29
f 78/101/59 52/108/29 48/109/31
f 78/104/59 48/106/31 39/105/36
f 77/101/57 40/103/35 42/110/37
f 32/111/28 47/112/1 67/113/52
f 15/114/15 67/113/52 79/115/15
f 49/116/42 79/115/15 47/112/1
f 67/113/52 47/112/1 79/115/15
f 15/114/15 79/115/15 2/117/2
f 26/111/22 69/113/54 53/112/17
f 50/116/43 53/112/17 80/115/13
f 12/114/13 80/115/13 69/113/54
f 53/112/17 69/113/54 80/115/13
f 12/114/13 7/117/8 80/115/13
f 81/118/60 79/115/15 49/116/42
f 81/118/60 49/116/42 54/119/45
f 55/120/46 5/121/5 2/117/2
f 55/120/46 2/117/2 82/122/61
f 82/122/61 2/117/2 79/115/15
f 82/122/61 79/115/15 81/118/60
f 57/119/37 50/116/43 80/115/13
f 57/119/37 80/115/13 83/118/62
f 84/122/63 10/121/10 56/120/47
f 83/118/62 80/115/13 7/117/8
f 83/118/62 7/117/8 84/122/63
f 85/123/64 81/118/60 54/119/45
f 85/123/64 54/119/45 58/124/31
f 59/124/37 55/120/46 82/122/61
f 59/124/37 82/122/61 86/123/61
f 86/123/61 82/122/61 81/118/60
f 86/123/61 81/118/60 85/123/64
f 61/125/48 57/119/37 83/118/62
f 61/125/48 83/118/62 87/123/65
f 88/123/15 84/122/63 56/120/47
f 88/123/15 56/120/47 60/124/31
f 87/123/65 83/118/62 84/122/63
f 87/123/65 84/122/63 88/123/15
f 89/126/66 86/123/61 85/123/64
f 89/126/66 85/123/64 90/127/67
f 63/128/49 59/124/37 86/123/61
f 63/128/49 86/123/61 89/126/66
f 90/127/67 85/123/64 58/124/31
f 90/127/67 58/124/31 62/128/1
f 65/128/22 61/125/48 87/123/65
f 65/128/22 87/123/65 91/127/68
f 91/127/68 87/123/65 88/123/15
f 91/127/68 88/123/15 92/127/69
f 92/127/69 88/123/15 60/124/31
f 92/127/69 60/124/31 64/128/50
f 84/122/63 7/117/8 10/121/10
f 95/129/28 94/130/70 93/131/57
f 93/131/57 94/132/70 96/133/23
f 96/133/23 94/132/70 97/134/13
f 97/134/13 94/135/70 98/136/71
f 98/136/71 94/135/70 95/137/28
f 101/131/58 100/130/72 99/129/73
f 102/133/50 100/132/72 101/131/58
f 103/134/15 100/132/72 102/133/50
f 104/136/74 100/135/72 103/134/15
f 99/137/73 100/135/72 104/136/74
f 106/138/75 63/139/49 105/140/73
f 106/138/75 107/141/76 63/139/49
f 110/142/77 109/143/78 108/144/79
f 109/143/78 111/145/80 108/144/79
f 110/142/77 89/146/66 90/147/67
f 110/142/77 90/147/67 109/143/78
f 108/144/79 63/139/49 89/146/66
f 108/144/79 89/146/66 110/142/77
f 109/143/78 90/147/67 62/148/1
f 109/143/78 62/148/1 111/145/80
f 112/141/81 111/145/80 62/148/1
f 112/141/81 62/148/1 107/141/76
f 107/141/76 62/148/1 63/139/49
f 105/140/73 63/139/49 108/144/79
f 105/140/73 108/144/79 113/140/16
f 113/140/16 108/144/79 111/145/80
f 114/138/4 111/145/80 112/141/81
f 114/138/4 113/140/16 111/145/80
f 115/149/36 112/141/81 107/141/76
f 115/149/36 107/141/76 106/138/75
f 115/149/36 114/138/4 112/141/81
f 115/149/36 106/138/75 114/138/4
f 116/150/35 105/140/73 113/140/16
f 116/150/35 113/140/16 114/138/4
f 116/150/35 106/138/75 105/140/73
f 116/150/35 114/138/4 106/138/75
f 117/151/76 64/152/50 65/153/22
f 120/154/82 119/155/83 118/156/63
f 118/156/63 121/157/18 120/154/82
f 120/154/82 65/153/22 91/158/68
f 120/154/82 91/158/68 119/155/83
f 119/155/83 91/158/68 92/159/69
f 119/155/83 92/159/69 118/160/63
f 118/156/63 92/161/69 64/152/50
f 118/156/63 64/152/50 121/157/18
f 122/151/84 121/157/18 64/152/50
f 122/151/84 64/152/50 117/151/76
f 124/162/75 65/153/22 123/163/73
f 123/163/73 65/153/22 120/154/82
f 123/163/73 120/154/82 125/163/16
f 125/163/16 120/154/82 121/157/18
f 126/162/4 121/157/18 122/151/84
f 124/162/75 117/151/76 65/153/22
f 126/162/4 125/163/16 121/157/18
f 127/164/35 123/163/73 125/163/16
f 127/164/35 125/163/16 126/162/4
f 127/164/35 124/162/75 123/163/73
f 127/164/35 126/162/4 124/162/75
f 128/165/36 122/151/84 117/151/76
f 128/165/36 117/151/76 124/162/75
f 128/165/36 126/162/4 122/151/84
f 128/165/36 124/162/75 126/162/4
# 238 triangles in group

# 238 triangles total

